<svg xmlns="http://www.w3.org/2000/svg" version="1.0" viewBox="0 0 955 220"><g fill="#2f394f" stroke-width="0"><path d="M142.5 1.1c-13.2.7-25 2.8-36.2 6.5C89.7 13 78.6 19.5 53.9 38.1 33.1 53.6 23.7 59.8 11.5 65.7c-10.5 5-10.7 5.9-1.7 7 6 .7 15-1.8 20.9-5.7 2.3-1.6 12.7-9.6 23-17.7 22.4-17.8 29.2-22.5 38.7-26.9 16.4-7.5 34.8-10.5 65.7-10.4 29.4 0 51.4 3.3 70.7 10.6 3.7 1.4 11.8 3.9 18 5.5 14.5 3.7 23.5 3.9 30.8.5 7.3-3.4 7.6-4.6 1.1-4.6-9.6 0-21.8-2.8-42-9.5-10.8-3.6-24.8-7.6-31.1-9-19.1-3.9-42.3-5.6-63.1-4.4zm284.7 18.1.3 4.3 7.4.7c9.6 1 14.1 3.2 16.6 8.3 1.9 3.9 2 6 2 75.5 0 65-.2 71.8-1.7 75.2-2.2 4.8-6.7 7.5-13.7 8.3-11.1 1.2-11.1 1.2-11.1 5.6v3.9h80v-4c0-4.3.8-3.9-10.9-5.5-6.7-.9-10.7-3.2-12.8-7.3-1.7-3.5-1.8-8.2-2.1-73.1-.3-75.7-.1-78.3 4.8-82.5 3.1-2.6 10.6-4.6 17-4.6h4v-9h-80.1l.3 4.2zm95.8.1v4.3l6.9 1c8.7 1.4 13.2 4.2 17.7 10.8 3.1 4.6 43.4 104.1 61.5 151.8l6.4 16.8h10.1l4.3-11.3C644 155.9 684.2 59.5 691.5 45c6-11.9 11.1-17.1 19.1-19.3 3.3-.9 7.2-1.7 8.7-1.7 2.5 0 2.7-.3 2.7-4.5V15h-66v8.7l5.3.7c11.3 1.4 16.7 4.7 16.7 9.9 0 3.6-3.5 13.9-14.5 43.2-8.1 21.7-31.9 81.6-33.4 84.3-.8 1.5-5.5-9.7-30.7-73.3-22.4-56.7-22.6-57.2-18.6-60.8 1.9-1.8 9-3.6 14-3.7 3.1 0 3.2-.1 3.2-4.5V15h-75v4.3zm217 .1v4.3l7.1.6c8.6.7 12.7 2.9 15.4 8.2 1.9 3.9 2 6 2 75.5 0 65-.2 71.8-1.7 75.2-2 4.5-6.7 7.5-12.8 8.3-11.6 1.5-11 1.2-11 5.5v4h82v-4c0-4.3.4-4.1-11.3-5.4-7.3-.9-13.3-3.9-15.4-7.8-1.6-3-1.8-6.7-2.1-36.6l-.3-33.2h20.5c33.5 0 35.8 1.2 40 20.2.6 2.6 1 2.8 5.1 2.8h4.5V81h-4.5c-4.4 0-4.4 0-5.5 4.2-2.1 8.4-4.2 11.9-8.4 14.1-3.8 2-5.9 2.2-27.8 2.5l-23.8.4V65.8c0-28.2.3-36.8 1.3-38.2 1.2-1.6 3.3-1.7 25.7-1.4 24 .3 24.6.3 29 2.8 6.2 3.5 11.4 11.4 14.2 21.7 2.2 8 2.4 8.3 5.3 8.3 5.8 0 5.8-.1 4.6-18.6-.7-9.3-1.4-18.8-1.7-21.2l-.5-4.2H740v4.4zm176.1-1.3c-10.1 2.1-15.5 14.6-9.8 22.9 3.7 5.5 7.2 7.5 13.2 7.5 8.5 0 14.5-5.6 15.2-14.2.9-10.5-8.1-18.4-18.6-16.2z"/><path d="M138.5 34.6c-33.2 5.1-56.1 15.4-90.7 41-7.9 5.9-16.3 11.5-18.8 12.6-2.5 1.1-8.1 2.3-12.5 2.8-9.3.8-16.7 2.9-16.2 4.4.2.6 2.5 2.2 5.2 3.5 7.2 3.7 14.6 3.9 31.1.5 16.8-3.3 28.8-3.7 35.6-1.1 5.6 2.2 17.6 8.8 27.6 15.3 5.4 3.4 10.8 8.6 20.4 19.2 28.4 31.3 56.7 53.1 92.3 71.2 22.4 11.4 35.5 15 54.2 15 17.1 0 32.1-4.2 42-11.7 5.7-4.3 10.9-13.3 12.9-22 3.1-14 .5-24.3-8.4-33.2-9-9-23.9-11.5-35-5.9-5.9 3-8.5 6.5-8.4 11.6.1 5.2 1.5 7.8 5.5 10.2 4.4 2.7 8.9 2.5 12.5-.5 3.8-3.2 4.7-6.7 2.6-10.6-.8-1.7-1.3-3.3-1.1-3.5 1-1.1 10 2.1 13.7 4.7 11.2 8.1 10.6 26.2-1.3 36.4-7.5 6.4-13.1 7.9-30.2 7.9-13.4-.1-16-.4-24-2.8-18.6-5.5-47.8-22.4-70.5-40.7-10.8-8.8-28.9-25.2-31.8-29l-2-2.5h30.1c32.3.1 38.6-.5 63.2-6 12.9-2.9 46.6-12.3 47.8-13.4 1.9-1.7-10.2-2-20-.5-11.4 1.7-17.3 1.9-17.3.7 0-.9 15.7-36.2 16.4-37 .3-.2 3.1 1.4 6.3 3.5 14.5 9.8 27.7 15.4 41.1 17.3C332 95 347 83.1 347 63.3c0-2.9-.3-5.3-.6-5.3-.4 0-2.6 1.8-4.9 3.9-9.7 8.9-20.2 11.4-37.4 8.8-13.1-1.9-16.7-3.1-55.7-18.1-32-12.3-42.9-15.5-59.7-18-12.8-1.9-37.7-1.9-50.2 0zm44.9 16.8c2.8 1.8 3.3 4.4 1.5 9.5-1.3 3.6-3.7 4.5-11.9 4.5-6.8-.1-9.8-1.6-11.6-5.9-2-5-1.8-6.3 1.9-8.6 2.7-1.7 4.4-2 10.4-1.6 4.4.2 8.2 1 9.7 2.1zm60.2 11.3c2.1 8.1-3.6 22.5-11.9 30.6-10.5 10.3-31.8 19-49.4 20.3-21 1.5-48.4-7.8-59.2-20.1-4.9-5.6-8.9-14.9-10.1-23.3-1.3-9.3-.5-11.2 5-11.2 3.7 0 3.9.2 4.5 3.5.3 1.9.8 5.2 1.1 7.2.7 4.8 5.7 14.3 9.2 17.6 4.8 4.6 14.1 9.4 22.5 11.8 12 3.4 28.1 3.2 39.2-.4 8.5-2.8 18.1-8.1 22.8-12.5 6.3-6 10.6-17.1 10.7-27.4v-4.7l7.5 3.1c5.9 2.4 7.7 3.6 8.1 5.5zm-151.3 19c1.5 8.1 2.5 14.8 2.3 15.1-.4.3-6.6-1.3-31.4-8.5-6.1-1.7-5.9-2.3 1.5-7.4 6.1-4.3 22.6-13.8 23.9-13.9.6 0 2.2 6.4 3.7 14.7zm832.2-6.5c-4.9 1.6-13.5 3.7-19 4.9-5.5 1.1-11 2.2-12.2 2.5-1.9.3-2.3 1.1-2.3 3.8 0 3.4.1 3.5 5.5 4.6 6.9 1.4 10.3 4.3 11.5 9.5 1.3 5.5 1.3 73.9 0 80.6-1.4 7.1-4 9.6-11.5 11-3.3.7-6.6 1.3-7.2 1.5-.8.2-1.3 1.9-1.3 3.9v3.5h67.1l-.3-3.7-.3-3.7-6.9-1.3c-6.8-1.2-9.7-2.9-11.9-6.8-.9-1.4-1.3-18.1-1.7-57.5l-.5-55.6-9 2.8z"/></g></svg>