<svg xmlns="http://www.w3.org/2000/svg" version="1.0" viewBox="0 0 360 230"><g fill="#FFF" stroke-width="0"><path d="M148.5 6.1c-13.2.7-25 2.8-36.2 6.5C95.7 18 84.6 24.5 59.9 43.1 39.1 58.6 29.7 64.8 17.5 70.7c-10.5 5-10.7 5.9-1.7 7 6 .7 15-1.8 20.9-5.7 2.3-1.6 12.7-9.6 23-17.7 22.4-17.8 29.2-22.5 38.7-26.9 16.4-7.5 34.8-10.5 65.7-10.4 29.4 0 51.4 3.3 70.7 10.6 3.7 1.4 11.8 3.9 18 5.5 14.5 3.7 23.5 3.9 30.8.5 7.3-3.4 7.6-4.6 1.1-4.6-9.6 0-21.8-2.8-42-9.5-10.8-3.6-24.8-7.6-31.1-9-19.1-3.9-42.3-5.6-63.1-4.4z"/><path d="M144.5 39.6c-33.2 5.1-56.1 15.4-90.7 41-7.9 5.9-16.3 11.5-18.8 12.6-2.5 1.1-8.1 2.3-12.5 2.8-9.3.8-16.7 2.9-16.2 4.4.2.6 2.5 2.2 5.2 3.5 7.2 3.7 14.6 3.9 31.1.5 16.8-3.3 28.8-3.7 35.6-1.1 5.6 2.2 17.6 8.8 27.6 15.3 5.4 3.4 10.8 8.6 20.4 19.2 28.4 31.3 56.7 53.1 92.3 71.2 22.4 11.4 35.5 15 54.2 15 17.1 0 32.1-4.2 42-11.7 5.7-4.3 10.9-13.3 12.9-22 3.1-14 .5-24.3-8.4-33.2-9-9-23.9-11.5-35-5.9-5.9 3-8.5 6.5-8.4 11.6.1 5.2 1.5 7.8 5.5 10.2 4.4 2.7 8.9 2.5 12.5-.5 3.8-3.2 4.7-6.7 2.6-10.6-.8-1.7-1.3-3.3-1.1-3.5 1-1.1 10 2.1 13.7 4.7 11.2 8.1 10.6 26.2-1.3 36.4-7.5 6.4-13.1 7.9-30.2 7.9-13.4-.1-16-.4-24-2.8-18.6-5.5-47.8-22.4-70.5-40.7-10.8-8.8-28.9-25.2-31.8-29l-2-2.5h30.1c32.3.1 38.6-.5 63.2-6 12.9-2.9 46.6-12.3 47.8-13.4 1.9-1.7-10.2-2-20-.5-11.4 1.7-17.3 1.9-17.3.7 0-.9 15.7-36.2 16.4-37 .3-.2 3.1 1.4 6.3 3.5 14.5 9.8 27.7 15.4 41.1 17.3 21.2 3 36.2-8.9 36.2-28.7 0-2.9-.3-5.3-.6-5.3-.4 0-2.6 1.8-4.9 3.9-9.7 8.9-20.2 11.4-37.4 8.8-13.1-1.9-16.7-3.1-55.7-18.1-32-12.3-42.9-15.5-59.7-18-12.8-1.9-37.7-1.9-50.2 0zm44.9 16.8c2.8 1.8 3.3 4.4 1.5 9.5-1.3 3.6-3.7 4.5-11.9 4.5-6.8-.1-9.8-1.6-11.6-5.9-2-5-1.8-6.3 1.9-8.6 2.7-1.7 4.4-2 10.4-1.6 4.4.2 8.2 1 9.7 2.1zm60.2 11.3c2.1 8.1-3.6 22.5-11.9 30.6-10.5 10.3-31.8 19-49.4 20.3-21 1.5-48.4-7.8-59.2-20.1-4.9-5.6-8.9-14.9-10.1-23.3-1.3-9.3-.5-11.2 5-11.2 3.7 0 3.9.2 4.5 3.5.3 1.9.8 5.2 1.1 7.2.7 4.8 5.7 14.3 9.2 17.6 4.8 4.6 14.1 9.4 22.5 11.8 12 3.4 28.1 3.2 39.2-.4 8.5-2.8 18.1-8.1 22.8-12.5 6.3-6 10.6-17.1 10.7-27.4v-4.7l7.5 3.1c5.9 2.4 7.7 3.6 8.1 5.5zm-151.3 19c1.5 8.1 2.5 14.8 2.3 15.1-.4.3-6.6-1.3-31.4-8.5-6.1-1.7-5.9-2.3 1.5-7.4 6.1-4.3 22.6-13.8 23.9-13.9.6 0 2.2 6.4 3.7 14.7z"/></g></svg>