<?xml version="1.0" encoding="utf-8"?>
<!-- Generator: Adobe Illustrator 19.0.0, SVG Export Plug-In . SVG Version: 6.00 Build 0)  -->
<svg version="1.1" id="Layer_1" xmlns="http://www.w3.org/2000/svg" xmlns:xlink="http://www.w3.org/1999/xlink" x="0px" y="0px"
	 viewBox="594 197 1800 400" style="enable-background:new 594 197 1800 400;" xml:space="preserve">
<style type="text/css">
	.st0{fill:#fff;}
</style>
<g id="XMLID_1_">
	<g id="XMLID_9_">
		<path id="XMLID_53_" class="st0" d="M771.4,381.2c4-1,8.1-3,12.1-2.8c11.9,0.6,20.9-4.5,29.9-11.6c21.2-16.6,43.6-31.7,69.6-39.4
			c39.9-11.8,79.6-10.2,118.5,5.3c18.1,7.2,36.3,14,54.6,20.8c4.5,1.7,9.3,2.7,14,3.6c17.7,3.4,34.6,3.2,47.2-13
			c4.3,21.1-10.2,37.1-31.7,35.4c-17.7-1.3-32.8-9.3-47.1-19.2c-1.5-1-2.9-2.1-4-2.9c-5.8,13-11.5,25.9-17.3,38.9
			c12.5,0.8,25.8-5.9,39.7-1.5c-11.5,3.4-22.8,7-34.4,10c-11.9,3-24,5.9-36.1,7.7c-12,1.8-24.2,2.9-36.3,3
			c-12.1,0.1-24.2-1.3-37-2.1c2.4,2.7,4.4,5.4,6.9,7.7c23.1,22.6,48.4,42.3,77.3,57.1c18.7,9.6,38.4,14.3,59.4,10.7
			c9.9-1.7,18.1-6.5,22.9-15.9c8-15.9-1.7-32.2-19.7-32.8c-0.1,0.3-0.3,0.7-0.2,0.8c3.1,3.5,4.1,7.3,1.5,11.4
			c-2.4,3.8-6.2,4.9-10.4,4.4c-4.7-0.6-8-3.2-9.6-7.7c-2.2-6.4,0.4-12.3,7-15.8c10.9-5.8,26.9-3.4,35.8,5.3
			c10.5,10.2,11.9,22.5,8.2,36c-4.6,16.7-16.8,25.2-32.5,29.1c-22.7,5.7-44.7,2.2-65.7-7.4c-43.3-19.9-79.8-48.5-110.2-85.1
			c-4.3-5.2-10.5-9.1-16.2-13c-4.7-3.2-10.2-5.1-14.8-8.2c-10.4-7-21.7-7.9-33.5-5.7c-6.9,1.3-13.7,2.9-20.6,4
			c-7.1,1.2-14.3,1.6-21.1-1.6c-2.2-1-4.1-2.5-6.2-3.8C771.4,382.4,771.4,381.8,771.4,381.2z M893.3,346.3c-10.3-1-10.5-0.8-9.6,8.9
			c1.5,16.3,9.9,28.5,24.1,35.6c29.7,14.7,59.3,13.3,87.4-4.3c12.3-7.7,19.4-19.5,20.1-34.4c0.1-1.7-0.7-4.3-1.9-4.9
			c-4.5-2.3-9.4-3.9-14.6-6c-0.1,1.5-0.3,2.1-0.2,2.7c1.3,17.8-7.1,30.1-22.6,37.6c-18.6,9.1-37.9,9.7-57.1,2.2
			c-12.4-4.9-21.4-13.4-24.5-26.9C893.8,353.5,893.7,350,893.3,346.3z M828.8,373.8c12.8,3.6,25.3,7.2,37.4,10.6
			c-2-10.9-3.9-20.9-5.8-31.4C849.6,360.3,837.3,364.5,828.8,373.8z M943.7,335.7c-2.5,0.2-4.7,0-6.4,0.7c-2.3,0.9-5.8,2.3-6,4
			c-0.4,2.7,0.8,6.1,2.3,8.7c0.9,1.6,3.5,2.8,5.4,3.1c3.7,0.5,7.6,0.5,11.3,0.2c5.5-0.3,6.1-4.8,6.7-8.9c0.6-4.4-2.5-5.7-5.9-6.5
			C948.5,336.3,945.8,336,943.7,335.7z"/>
		<path id="XMLID_50_" class="st0" d="M1806.8,366.9c0-16.4,0.2-32.4-0.1-48.3c-0.1-6.9-2.8-9.2-10.2-9.4c-4.4-0.1-6.2-1.4-4.8-5.9
			c10.7-1.8,21.4-3.6,32.8-5.5c0,2.5,0,4.4,0,6.4c0,40.8,0.1,81.6,0.1,122.4c0,0.7,0,1.3,0.1,2c0.4,11.4,0.8,11.9,12.1,13.2
			c0.6,0.1,1.3,0.3,2.1,0.5c0,1.8,0,3.6,0,5.1c-9.4,1.1-18.4,2.3-27.5,3.2c-0.8,0.1-2.3-1.6-2.5-2.7c-0.7-3.5-0.9-7.1-1.4-11.3
			c-11.7,9.9-24.2,16.1-39.5,14c-10.8-1.5-19.2-7.1-26.1-15.3c-15.4-18-15-46.6,0.5-64.8C1754.7,356.1,1780.8,347,1806.8,366.9z
			 M1807.2,402.5c0-7.7,0.1-15.3-0.1-23c-0.1-1.7-0.9-4.3-2.2-5c-6.6-3.6-13.3-7.9-20.4-9.9c-12.4-3.4-24.2,1.9-28.9,12.8
			c-7.2,16.8-7.8,34,0.4,50.7c6.4,13.2,19.5,18.3,33.2,12.9c5.5-2.2,10.4-6.4,15.1-10.2c1.7-1.4,2.7-4.5,2.8-6.9
			C1807.5,416.8,1807.2,409.7,1807.2,402.5z"/>
		<path id="XMLID_49_" class="st0" d="M1587.7,444.7c0,1.9,0,3.6,0,5.7c-1.7,0.1-3.1,0.3-4.6,0.3c-20,0-40,0-59.9,0
			c-2.4,0-5.2,0.6-5-3.5c0.1-3.9,2.8-3,5-3c14.7-0.3,17.6-2.4,17.8-17c0.4-35.1,0.1-70.3,0.1-105.4c0-2.1-0.4-4.3-0.7-6.4
			c-1-5.6-3.4-8.1-9.2-8.7c-3.1-0.3-6.4,0.1-9.5-0.4c-1.2-0.2-2.2-1.9-3.3-3c1-1.1,2.1-3.1,3.1-3.1c22-0.2,43.9-0.1,66.3-0.1
			c0.1,2.1,0.2,3.8,0.3,6.4c-3.6,0-6.8-0.1-10.1,0c-8.2,0.2-11.1,2.7-12.2,10.7c-0.6,4.1-0.9,8.3-0.9,12.4
			c-0.1,30.8,0,61.6,0.1,92.4c0,4.3,0.7,8.6,1,12.9c0.4,4.8,3,7.7,7.8,8.3C1578.3,443.9,1582.9,444.2,1587.7,444.7z"/>
		<path id="XMLID_48_" class="st0" d="M1666.1,450.7c0-2.4,0-4,0-6.2c2.2-0.1,4.3-0.2,6.3-0.4c6.3-0.6,8.5-2.3,8.8-8.6
			c0.5-12.1,0.3-24.3,0.4-36.5c0-6.2,0.3-12.3-0.1-18.5c-0.7-11.3-7.5-17.1-19-16.3c-12.2,0.9-19.7,8.8-26.1,18.1
			c-0.6,0.8-0.5,2.2-0.5,3.4c0,15.2,0,30.3,0.1,45.5c0.1,10.8,1.4,12,12.4,13.1c0.6,0.1,1.2,0.3,1.9,0.5c1.3,4.3,0.4,6.2-4.5,6.1
			c-12.5-0.3-25-0.3-37.5,0c-5.2,0.1-5.3-2.3-4.4-5.8c0.5-0.4,0.6-0.6,0.8-0.6c11.2-0.4,14-0.7,13.9-15.7c-0.1-16.5-0.1-33-0.4-49.5
			c-0.2-10.1-1.5-11.1-11.7-11.9c-0.8-0.1-1.6-0.2-2.5-0.4c-1.6-4.3-0.6-6.3,4.3-6.9c6.4-0.8,12.8-2.3,19-4c4-1.1,5.9-0.3,6.5,3.9
			c0.5,3.9,1.4,7.8,2.1,11.8c0.6,0.5,1.2,1.1,1.8,1.6c0.9-1.7,1.5-3.8,2.9-5.1c9-8.8,19.6-13.7,32.5-12.5
			c16.2,1.4,25.4,11.2,25.6,27.5c0.2,15.8,0,31.7,0.2,47.5c0.2,11.4,0.7,11.7,11.9,13.6c1.1,0.2,2.5,2.2,2.6,3.5
			c0.1,0.9-1.8,2.8-2.8,2.8C1696,450.7,1681.4,450.7,1666.1,450.7z"/>
		<path id="XMLID_47_" class="st0" d="M2009.7,397c10.8,13.1,21.2,26.1,31.9,38.8c4.1,4.9,9.1,8.3,16.1,8.5c0,2.1,0,3.9,0,6
			c-15.9,0-31.7,0-47.7,0c0-2.1,0-3.8,0-5.8c2.5-0.3,4.8-0.5,7.1-1c4.5-1,5.4-3.1,2.5-6.6c-7-8.7-14.1-17.2-21.6-26.2
			c-7.2,8.6-14.2,16.8-20.9,25.2c-2.9,3.6-1.9,5.8,2.6,7.3c1.3,0.4,2.6,0.6,3.9,0.7c1.3,0.2,2.6,0.2,4.2,0.4c0,2,0,3.8,0,5.9
			c-13.2,0-26.2,0-39.6,0c0-1.9,0-3.6,0-5.8c12.8-1.3,21.1-9.7,28.7-18.9c5.5-6.7,11.1-13.3,17.3-20.7
			c-10.4-12.6-20.6-25.5-31.6-37.7c-2.9-3.3-8.3-4.4-13.2-6.8c-0.8-3-0.3-5.2,4.8-5.1c12,0.3,24,0.1,36,0.1c1.5,0,2.9,0.2,4.6,0.3
			c0,2.1,0,3.9,0,5.6c-0.3,0.2-0.6,0.4-0.9,0.6c-2.6,1.1-5.3,2.1-7.9,3.1c1.3,2.3,2.4,4.9,4.1,7c5,6.4,10.2,12.7,15.8,19.6
			c6.3-7.7,12.5-15,18.5-22.5c2-2.6,0.4-4.5-2.1-5.4c-2.8-1-5.8-1.4-8.8-2.1c-1.6-5.6-1.2-6.2,4.6-6.2c9.5,0,19,0,28.5,0
			c1.5,0,2.9,0.2,4.6,0.3c0,2.1,0,3.9,0,6c-10.8,1.4-18.1,8.4-24.8,16.2C2020.9,384.1,2015.6,390.2,2009.7,397z"/>
		<path id="XMLID_46_" class="st0" d="M1284.3,362.1c0-2.5,0-4.3,0-6.4c14.6,0,29,0,43.9,0c0,2,0,3.9,0,5.8c-15.1,3-12.1,3.2-7,14.6
			c7.4,16.3,15.1,32.6,22.7,48.8c0.6,1.3,1.3,2.6,2.3,4.7c2.8-6.5,5.2-12.2,7.6-17.9c5.5-13.2,11-26.4,16.5-39.6
			c2.7-6.5,1.9-8.2-4.9-9.5c-1.9-0.4-3.9-0.6-6.1-1c0-1.9,0-3.7,0-6.3c5.9,0,11.6,0,17.4,0c3.8,0,7.7,0.3,11.5-0.1
			c4.9-0.4,6.3,1.6,4.8,6.6c-11.4,0-14.6,8.9-18.2,17.4c-14,33.6-27.9,67.3-42,100.8c-2.9,6.9-6.1,13.7-10.3,19.9
			c-2.2,3.2-6.4,5.7-10.2,7c-2.3,0.8-6.9-0.7-8.1-2.7c-1.4-2.3-1.4-6.9,0.1-9.1c2.3-3.4,5.9-6.6,9.6-8.2c8.3-3.6,13.3-9.4,16-17.9
			c1.9-6,6.4-11.8,6.3-17.6c-0.2-5.8-4.7-11.5-7.4-17.2c-9.5-20.3-19.2-40.6-28.6-61C1297.2,366.5,1293,361.5,1284.3,362.1z"/>
		<path id="XMLID_45_" class="st0" d="M1398.9,362.1c-1.6-5.4,0.1-6.9,4.9-6.7c11.2,0.3,22.3,0.1,33.5,0.1c1.6,0,3.3,0.1,5.3,0.2
			c0.1,2,0.2,3.8,0.3,5.9c-2.6,0.5-5,0.9-7.4,1.4c-3.8,0.8-4.9,2.9-3.2,6.5c3.1,6.5,6,13,9.1,19.4c5.5,11.9,11.1,23.8,16.6,35.7
			c0.7,1.5,1.5,2.9,2.6,5.1c6.3-15.1,12.4-29.5,18.4-43.9c2-4.8,4-9.5,6-14.3c2.4-5.6,1.4-7.5-4.6-8.7c-2.1-0.4-4.2-0.7-6.6-1.1
			c0-1.8,0-3.5,0-5.8c11.2,0,22.4,0,33.8,0c0,1.9,0,3.7,0,6c-10.6,0-14.4,7.7-17.8,16c-14.3,34.4-28.5,68.8-43,103.2
			c-2.8,6.6-6.2,12.9-9.7,19.1c-2.3,4.1-5.9,7.2-10.7,7.2c-2.7,0-6.6-0.9-7.8-2.8c-1.4-2.2-1.6-6.7-0.2-8.7
			c2.6-3.6,6.3-7.1,10.3-8.9c7.9-3.6,11.8-9.6,15.7-17c6.7-12.7,5.9-23.5-1-36.1c-10.5-19.2-19-39.6-28.2-59.5
			C1411.9,367.3,1407.9,361.4,1398.9,362.1z"/>
		<path id="XMLID_42_" class="st0" d="M2154.9,426.1c-4.9,14.8-18.2,23.8-35.7,24.6c-23,1.1-43.5-16.2-46.8-39.3
			c-3.5-24.8,11.3-49.5,33.4-54.7c14.7-3.4,28.2-0.7,39.4,10.1c6.6,6.3,9.8,14.1,9.8,23.9c-1.9,0.1-3.7,0.3-5.4,0.3
			c-17.5,0-35,0.1-52.5-0.1c-4,0-5.5,1.2-5.1,5c1,9.1,1.2,18.3,3.2,27.1c2.6,11,9.9,18.6,21.6,20.1c12.7,1.6,23.1-2.5,29.7-14
			C2148.6,425.4,2150.8,424.6,2154.9,426.1z M2134.2,384.8c0.9-7.9-0.2-15-6.9-19.7c-7-5-14.9-4.8-22.2-0.9
			c-8.1,4.2-10.5,12.1-11.9,20.7C2107.1,384.8,2120.5,384.8,2134.2,384.8z"/>
		<path id="XMLID_39_" class="st0" d="M1213.2,390.7c-0.6,14.1-0.9,27.5,5.9,39.6c10.1,18.3,37,17.5,48.4-1.1c2.6-4.3,2.6-4.3,8.3-3
			c-2.1,7.6-6.7,13.3-13.1,17.4c-29,18.4-66.3-0.3-69.4-34.1c-1.6-16.5,3.3-31.3,15.7-43.1c16.2-15.4,42.8-14.7,58.2,1.4
			c5.9,6.2,8.8,13.8,8.5,22.9C1255,390.7,1234.3,390.7,1213.2,390.7z M1255,384.8c1.7-13-4.5-22-15.7-23.1
			c-14.1-1.4-23.8,7.5-24.9,23.1C1227.8,384.8,1241.3,384.8,1255,384.8z"/>
		<path id="XMLID_36_" class="st0" d="M1936.7,390.9c-6.2,0-12.2,0-18.1,0c-13.2,0-26.3,0.1-39.5-0.1c-3.6-0.1-5.4,0.8-5,4.7
			c1,9.1,1.1,18.3,3.1,27.2c2.6,11.2,9.9,18.9,21.9,20.5c12.7,1.6,23.1-2.6,29.6-14c2.1-3.6,4.4-4.4,8.4-3
			c-3,9.6-9.2,15.9-17.7,20.1c-28.6,14.3-63.6-6.3-65.2-38.4c-0.7-14.9,3.4-28.3,13.8-39.4c15.7-16.8,42.9-17.5,59.3-1.6
			C1934,373.2,1937.4,381.6,1936.7,390.9z M1916.5,384.8c1.3-14-5.6-22.8-17.7-23.2c-13.3-0.5-23.2,9.6-22.8,23.2
			C1889.4,384.8,1902.8,384.8,1916.5,384.8z"/>
		<path id="XMLID_35_" class="st0" d="M1055.4,311.5c-8.3,7.2-18.2,7.9-28.1,5.9c-8.9-1.8-17.9-4.2-26.4-7.4
			c-27.4-10.5-55.8-12.2-84.6-11.3c-9.1,0.3-18.3,1.4-27.3,2.8c-18.2,2.8-34.2,10.8-48.5,22.2c-11.7,9.4-23.5,18.7-35.3,27.9
			c-9.6,7.6-20.2,10.6-32.5,6.3c0.3-0.4,0.5-0.9,0.8-1c18.5-7.1,34.1-18.7,49.6-30.6c14.6-11.1,29.3-22.2,46.5-29
			c25.1-10,51.2-11,77.7-9c22.8,1.7,44.7,6.8,66,15.1C1026.7,308.5,1040.8,311.3,1055.4,311.5z"/>
		<path id="XMLID_34_" class="st0" d="M2167.5,367.9c0-2.1,0-3.7,0-5.5c9.3-2.3,18.5-4.6,28.6-7.1c1.1,6.3,2.3,12.6,3.5,19.4
			c1.6-2.3,3-4.5,4.6-6.5c5.7-6.9,12.6-11.9,21.8-12.8c9.3-0.9,18,6.5,17.1,15.1c-0.3,2.5-2.2,5.7-4.3,7c-3.1,1.8-6.9,1-9.4-2.2
			c-1.2-1.5-2.1-3.4-2.9-5.2c-2.5-5.8-5.6-6.9-10.9-3.3c-8,5.5-14.1,12.9-14.5,22.8c-0.7,15.6-0.4,31.3-0.1,46.9
			c0.1,5.1,3,7.1,9.3,7.6c1.7,0.1,3.5-0.3,4.9,0.4c0.9,0.4,1.7,2.6,1.4,3.6c-0.4,1.1-2.1,2.5-3.2,2.5c-14.2,0.2-28.3,0.1-42.5,0.1
			c-2.6,0-4.1-1-3.3-3.5c0.4-1.2,2.1-2.8,3.3-2.9c10.6-1.1,12.2-2.7,12.2-13.3c0-17.2,0.1-34.3-0.4-51.5c-0.3-9.1-2-10.4-11.1-11.2
			C2170.3,368.2,2169.2,368.1,2167.5,367.9z"/>
	</g>
</g>
</svg>
